<?xml version="1.0" standalone="no"?>
<!DOCTYPE svg PUBLIC "-//W3C//DTD SVG 20010904//EN"
 "http://www.w3.org/TR/2001/REC-SVG-20010904/DTD/svg10.dtd">
<svg version="1.0" xmlns="http://www.w3.org/2000/svg"
 width="300.000000pt" height="113.000000pt" viewBox="0 0 300.000000 113.000000"
 preserveAspectRatio="xMidYMid meet">
<metadata>
Created by potrace 1.10, written by Peter Selinger 2001-2011
</metadata>
<g transform="translate(0.000000,113.000000) scale(0.100000,-0.100000)"
fill="#000000" stroke="none">
<path d="M153 1022 c5 -43 52 -122 76 -130 11 -4 13 4 7 39 -8 50 -39 104 -68
120 -20 11 -21 9 -15 -29z"/>
<path d="M100 901 c19 -36 110 -79 110 -53 0 21 -74 72 -105 72 -12 0 -14 -4
-5 -19z"/>
<path d="M1447 843 c-25 -24 33 -143 69 -143 17 0 63 71 71 110 8 41 -22 53
-50 19 -17 -21 -17 -24 -3 -27 20 -4 20 -16 0 -36 -19 -20 -28 -20 -44 -1 -9
10 -9 15 -1 15 16 0 13 36 -5 54 -17 17 -27 20 -37 9z"/>
<path d="M90 826 c0 -12 47 -36 71 -36 20 0 7 20 -21 35 -36 19 -50 19 -50 1z"/>
<path d="M2602 813 c-17 -32 -24 -81 -13 -88 14 -8 51 53 51 83 0 26 -25 30
-38 5z"/>
<path d="M283 791 c-48 -23 -67 -39 -87 -74 -47 -80 -25 -160 43 -160 18 0 37
6 41 13 10 16 3 33 -10 25 -14 -9 -60 36 -60 59 0 36 41 89 88 113 139 70 282
11 282 -115 0 -79 -49 -147 -130 -178 -25 -9 -49 -20 -54 -25 -11 -10 36 -157
76 -234 52 -103 116 -155 188 -155 34 0 79 20 99 43 19 23 -3 29 -36 10 -74
-42 -139 22 -266 259 l-36 68 27 5 c57 12 111 45 148 90 34 42 39 55 42 111 8
120 -57 174 -209 174 -72 0 -93 -4 -146 -29z"/>
<path d="M2680 758 c-34 -24 -68 -73 -58 -83 15 -15 128 71 128 97 0 16 -37 8
-70 -14z"/>
<path d="M422 734 c-55 -39 -70 -79 -142 -393 -23 -101 -42 -138 -74 -151 -51
-19 -76 41 -34 80 19 17 20 22 8 30 -15 9 -49 -4 -62 -24 -4 -6 -8 -25 -8 -43
0 -70 82 -97 147 -47 57 43 74 91 123 339 16 82 49 171 70 190 11 10 17 22 14
26 -7 13 -16 11 -42 -7z"/>
<path d="M743 702 c-52 -52 -92 -167 -117 -332 -9 -58 -19 -115 -22 -127 -6
-20 -3 -23 25 -23 26 0 31 4 31 23 0 53 96 204 117 184 3 -4 1 -28 -7 -55 -7
-26 -13 -69 -14 -97 l-1 -50 38 -3 c32 -3 42 2 65 27 33 38 40 39 44 4 2 -22
9 -29 32 -31 33 -4 68 24 87 70 8 20 15 26 22 19 20 -20 -13 -91 -53 -116 -99
-63 -121 -155 -37 -155 43 0 82 45 102 119 15 53 22 64 50 75 37 16 60 43 29
34 -10 -3 -27 -9 -36 -13 -23 -9 -23 6 2 119 11 50 20 92 20 94 0 2 -10 2 -21
0 -16 -2 -27 -19 -47 -73 -28 -81 -66 -135 -93 -135 -11 0 -19 5 -19 10 0 9
23 99 48 183 4 15 0 18 -24 15 -26 -3 -29 -9 -46 -75 -15 -59 -25 -80 -56
-108 -64 -60 -82 -44 -52 46 43 126 6 180 -68 101 -20 -21 -45 -50 -55 -63
l-18 -24 6 39 c5 28 21 56 54 93 83 93 122 200 86 236 -23 24 -39 21 -72 -11z
m60 -38 c-1 -16 -16 -56 -33 -89 -64 -125 -100 -141 -60 -27 43 125 99 195 93
116z m217 -491 c-1 -5 -11 -28 -23 -53 -15 -30 -29 -46 -44 -48 -34 -5 -30 30
8 73 28 32 60 47 59 28z"/>
<path d="M2392 705 c-17 -14 -42 -48 -56 -76 l-25 -51 -254 -4 c-292 -6 -320
-2 -385 58 -33 30 -48 38 -65 32 -29 -8 -55 -32 -62 -55 -9 -26 -20 -24 -33 6
-15 32 -55 33 -77 3 l-16 -23 -20 28 c-23 30 -50 35 -69 12 -16 -19 -30 -19
-30 -1 0 24 -26 39 -49 26 -30 -15 -26 -32 5 -24 26 7 26 6 23 -46 -5 -67 10
-74 34 -16 30 72 64 71 76 -1 7 -41 33 -53 39 -18 2 11 13 30 25 42 25 28 44
16 53 -33 8 -41 31 -45 40 -6 7 29 51 82 69 82 6 0 26 -16 45 -35 55 -57 75
-60 374 -57 l269 3 -8 -23 c-4 -13 -13 -52 -21 -88 -13 -60 -39 -100 -65 -100
-5 0 -9 20 -9 44 0 56 -25 89 -68 89 -55 0 -132 -85 -132 -147 0 -15 -12 -35
-31 -50 -58 -49 -67 -31 -38 80 20 79 20 87 5 102 -25 25 -66 5 -104 -53 l-34
-50 7 52 c6 45 4 54 -10 60 -21 7 -81 -23 -90 -45 -10 -25 4 -27 30 -2 25 23
25 23 25 2 0 -12 -9 -60 -20 -107 -11 -47 -20 -88 -20 -90 0 -3 11 -5 24 -5
24 0 36 16 36 52 0 29 87 158 106 158 18 0 18 -2 -11 -104 -12 -45 -14 -65 -6
-83 15 -32 60 -31 100 3 l31 26 21 -26 c30 -38 90 -37 130 3 16 16 29 36 29
43 0 12 57 48 75 48 3 0 5 -17 5 -38 0 -84 67 -110 134 -52 l35 31 13 -28 c9
-20 22 -29 43 -31 34 -3 42 2 73 42 22 29 27 26 34 -19 6 -35 55 -32 94 6 19
18 34 39 34 46 0 20 -9 16 -40 -17 -56 -60 -72 -30 -40 78 12 42 26 82 31 88
5 6 6 14 2 17 -11 12 -41 8 -46 -5 -4 -10 -7 -10 -18 0 -7 6 -28 12 -46 12
-53 0 -133 -83 -133 -138 0 -21 -45 -67 -76 -76 -27 -8 -43 10 -48 55 -3 29 4
45 49 104 29 39 60 84 68 101 l16 31 166 2 c187 2 253 11 296 42 38 26 40 66
4 75 -29 7 -59 -2 -51 -15 3 -5 15 -7 25 -4 26 7 34 -11 13 -30 -31 -28 -95
-38 -269 -44 -95 -3 -173 -4 -173 -2 0 2 7 26 15 53 12 40 13 53 2 75 -17 35
-38 37 -75 6z m48 -80 c-13 -53 -14 -55 -47 -55 -18 0 -33 2 -33 5 0 11 43 91
58 108 27 30 37 4 22 -58z m-30 -80 c0 -16 -85 -145 -95 -145 -11 0 -9 9 30
138 4 11 65 18 65 7z m-252 -107 c15 -19 24 -81 13 -97 -7 -11 -13 -11 -32 -1
-31 17 -39 29 -39 62 0 37 37 60 58 36z m447 -25 c-13 -52 -47 -121 -69 -142
-32 -30 -56 -18 -56 26 0 66 55 143 103 143 27 0 29 -2 22 -27z m-505 -80 c6
-7 19 -13 30 -13 30 0 34 -19 9 -46 -24 -26 -58 -31 -77 -12 -13 13 -17 100
-5 112 4 4 13 -1 20 -11 7 -10 17 -24 23 -30z"/>
<path d="M2703 673 c-20 -14 -32 -43 -18 -43 18 0 65 33 65 45 0 19 -19 18
-47 -2z"/>
<path d="M1624 545 c-9 -23 3 -45 24 -45 25 0 44 23 36 44 -8 20 -53 21 -60 1z"/>
<path d="M1166 449 c-14 -11 -26 -27 -26 -35 0 -20 13 -17 28 7 9 15 17 18 24
11 7 -7 5 -30 -5 -74 -8 -34 -18 -80 -22 -100 -5 -36 -4 -38 19 -38 21 0 26 6
32 38 12 65 74 172 101 172 17 0 17 -3 -7 -91 -27 -102 -26 -119 5 -119 20 0
25 5 25 26 0 34 67 162 92 175 30 16 32 5 15 -53 -19 -60 -24 -118 -13 -136
13 -22 71 -14 96 13 29 31 38 31 46 0 10 -39 61 -35 103 9 20 20 30 39 26 46
-5 8 -16 2 -36 -19 -30 -33 -47 -39 -54 -18 -5 10 13 89 41 185 5 18 2 22 -15
22 -25 0 -60 -66 -61 -112 0 -28 -39 -81 -72 -99 -37 -20 -41 3 -17 93 24 93
22 118 -13 118 -30 -1 -62 -27 -82 -67 -23 -47 -37 -41 -29 12 5 36 3 46 -11
51 -28 11 -64 -13 -86 -56 -30 -58 -52 -54 -30 6 20 51 -25 71 -74 33z"/>
<path d="M2773 220 c-34 -14 -28 -30 11 -30 39 0 67 24 40 34 -19 7 -23 7 -51
-4z"/>
<path d="M2740 146 c25 -31 110 -45 110 -18 0 14 -48 32 -87 32 -30 0 -34 -2
-23 -14z"/>
<path d="M2680 120 c0 -46 84 -139 106 -118 14 15 -51 109 -88 129 -15 8 -18
6 -18 -11z"/>
<path d="M210 112 c-40 -20 -48 -48 -11 -44 26 2 81 38 81 53 0 14 -32 11 -70
-9z"/>
<path d="M298 73 c-31 -33 -52 -73 -40 -73 5 0 17 10 26 23 l17 22 -5 -22 c-5
-29 19 -31 34 -4 12 23 14 81 2 81 -5 0 -20 -12 -34 -27z"/>
<path d="M377 84 c-4 -4 -7 -25 -7 -46 0 -44 26 -54 36 -14 10 43 -8 81 -29
60z"/>
<path d="M1117 23 c-15 -14 -5 -21 28 -20 37 1 46 11 19 21 -20 8 -39 8 -47
-1z"/>
<path d="M1890 14 c0 -11 5 -14 16 -10 9 3 22 6 30 6 8 0 14 5 14 10 0 6 -13
10 -30 10 -21 0 -30 -5 -30 -16z"/>
<path d="M2350 17 c0 -8 13 -13 35 -13 27 0 32 3 23 13 -14 17 -58 17 -58 0z"/>
</g>
</svg>
